<svg width="512" height="391" viewBox="0 0 512 391" fill="none" xmlns="http://www.w3.org/2000/svg">
<path d="M94.6 109.233H10.5C4.7 109.233 0 104.54 0 98.7492C0 92.9581 4.7 88.2653 10.5 88.2653H84V11.1839C84 5.39279 88.7 0.700012 94.5 0.700012C100.3 0.700012 105 5.39279 105 11.1839V98.7492C105.2 104.54 100.4 109.233 94.6 109.233Z" fill="white"/>
<path d="M96.4 390.7C90.6 390.7 85.9 386.007 85.9 380.216V308.626H10.5C4.7 308.626 0 303.933 0 298.142C0 292.351 4.7 287.658 10.5 287.658H96.4C102.2 287.658 106.9 292.351 106.9 298.142V380.216C107 386.007 102.2 390.7 96.4 390.7Z" fill="white"/>
<path d="M424.6 390.7C418.8 390.7 414.1 386.007 414.1 380.216V298.142C414.1 292.351 418.8 287.658 424.6 287.658H501.4C507.2 287.658 511.9 292.351 511.9 298.142C511.9 303.933 507.2 308.626 501.4 308.626H435.1V380.216C435.2 386.007 430.5 390.7 424.6 390.7Z" fill="white"/>
<path d="M501.5 109.233H424.7C418.9 109.233 414.2 104.54 414.2 98.7492V11.1839C414.2 5.39279 418.9 0.700012 424.7 0.700012C430.5 0.700012 435.2 5.39279 435.2 11.1839V88.1655H501.5C507.3 88.1655 512 92.8582 512 98.6493C512 104.54 507.3 109.233 501.5 109.233Z" fill="white"/>
</svg>
