<svg width="512" height="391" viewBox="0 0 512 391" fill="none" xmlns="http://www.w3.org/2000/svg">
<path d="M10.5 109.233C4.7 109.233 0 104.54 0 98.7492V11.1839C0 5.39279 4.7 0.700012 10.5 0.700012H94.6C100.4 0.700012 105.1 5.39279 105.1 11.1839C105.1 16.975 100.4 21.6678 94.6 21.6678H21.1V98.6493C21.1 104.54 16.4 109.233 10.5 109.233Z" fill="white"/>
<path d="M96.4 390.7H10.5C4.7 390.7 0 386.007 0 380.216V298.142C0 292.351 4.7 287.658 10.5 287.658C16.3 287.658 21 292.351 21 298.142V369.732H96.3C102.1 369.732 106.8 374.425 106.8 380.216C107 386.007 102.2 390.7 96.4 390.7Z" fill="white"/>
<path d="M501.5 390.7H424.7C418.9 390.7 414.2 386.007 414.2 380.216C414.2 374.425 418.9 369.732 424.7 369.732H491V298.142C491 292.351 495.7 287.658 501.5 287.658C507.3 287.658 512 292.351 512 298.142V380.216C512 386.007 507.3 390.7 501.5 390.7Z" fill="white"/>
<path d="M501.5 109.233C495.7 109.233 491 104.54 491 98.7493V21.7677H424.7C418.9 21.7677 414.2 17.075 414.2 11.2839C414.2 5.49277 418.9 0.799988 424.7 0.799988H501.5C507.3 0.799988 512 5.49277 512 11.2839V98.8491C512 104.54 507.3 109.233 501.5 109.233Z" fill="white"/>
</svg>
