<svg width="513" height="390" viewBox="0 0 513 390" fill="none" xmlns="http://www.w3.org/2000/svg">
<path d="M448.265 349H64.7349C57.148 349 51 342.586 51 334.671V70.3293C51 62.4141 57.148 56 64.7349 56H448.265C455.852 56 462 62.4141 462 70.3293V334.534C462 342.449 455.852 349 448.265 349ZM64.7349 334.671L448.265 334.534V70.3293H64.7349V334.671Z" fill="white"/>
<path d="M10.5 114.049C4.7 114.049 0 109.605 0 104.12V9.92968C0 4.44471 4.7 0 10.5 0H107.3C113.1 0 117.8 4.44471 117.8 9.92968C117.8 15.4146 113.1 19.8594 107.3 19.8594H21.1V104.025C21.1 109.605 16.4 114.049 10.5 114.049Z" fill="white"/>
<path d="M110.1 390H10.5C4.7 390 0 385.555 0 380.07V287.204C0 281.719 4.7 277.274 10.5 277.274C16.3 277.274 21 281.719 21 287.204V370.046H110C115.8 370.046 120.5 374.491 120.5 379.976C120.6 385.555 115.9 390 110.1 390Z" fill="white"/>
<path d="M501.5 390H406C400.2 390 395.5 385.555 395.5 380.07C395.5 374.585 400.2 370.141 406 370.141H490.9V287.299C490.9 281.814 495.6 277.369 501.4 277.369C507.2 277.369 511.9 281.814 511.9 287.299V380.165C512 385.555 507.3 390 501.5 390Z" fill="white"/>
<path d="M501.5 111.496C495.7 111.496 491 107.051 491 101.566V19.954H403.4C397.6 19.954 392.9 15.5093 392.9 10.0243C392.9 4.53932 397.6 0.0946045 403.4 0.0946045H501.6C507.4 0.0946045 512.1 4.53932 512.1 10.0243V101.566C512 107.051 507.3 111.496 501.5 111.496Z" fill="white"/>
</svg>
