<svg width="512" height="391" viewBox="0 0 512 391" fill="none" xmlns="http://www.w3.org/2000/svg">
<path d="M463.681 351H259.319C255.276 351 252 347.651 252 343.517V205.483C252 201.349 255.276 198 259.319 198H463.681C467.724 198 471 201.349 471 205.483V343.446C471 347.579 467.724 351 463.681 351ZM266.637 335.964H456.293V212.965H266.637V335.964Z" fill="white"/>
<path d="M10.5 114.849C4.7 114.849 0 110.405 0 104.92V10.7297C0 5.2447 4.7 0.799988 10.5 0.799988H107.3C113.1 0.799988 117.8 5.2447 117.8 10.7297C117.8 16.2146 113.1 20.6594 107.3 20.6594H21.1V104.825C21.1 110.405 16.4 114.849 10.5 114.849Z" fill="white"/>
<path d="M110.1 390.8H10.5C4.7 390.8 0 386.355 0 380.87V288.004C0 282.519 4.7 278.074 10.5 278.074C16.3 278.074 21 282.519 21 288.004V370.846H110C115.8 370.846 120.5 375.291 120.5 380.776C120.6 386.355 115.9 390.8 110.1 390.8Z" fill="white"/>
<path d="M501.5 390.8H406C400.2 390.8 395.5 386.355 395.5 380.87C395.5 375.385 400.2 370.941 406 370.941H490.9V288.099C490.9 282.614 495.6 278.169 501.4 278.169C507.2 278.169 511.9 282.614 511.9 288.099V380.965C512 386.355 507.3 390.8 501.5 390.8Z" fill="white"/>
<path d="M501.5 112.296C495.7 112.296 491 107.851 491 102.366V20.7539H403.4C397.6 20.7539 392.9 16.3092 392.9 10.8242C392.9 5.33924 397.6 0.894531 403.4 0.894531H501.6C507.4 0.894531 512.1 5.33924 512.1 10.8242V102.366C512 107.851 507.3 112.296 501.5 112.296Z" fill="white"/>
</svg>
