<svg width="512" height="390" viewBox="0 0 512 390" fill="none" xmlns="http://www.w3.org/2000/svg">
<g clip-path="url(#clip0)">
<path d="M129 389.957C127.6 389.957 126.2 389.729 124.9 389.348C121 388.053 118.5 385.159 118.5 381.96V7.99717C118.5 4.7983 121 1.82792 124.9 0.609303C128.8 -0.685478 133.3 -5.7826e-06 136.3 2.20874L390.3 189.19C392.4 190.714 393.5 192.77 393.5 194.979C393.5 197.187 392.3 199.244 390.3 200.767L136.3 387.673C134.3 389.196 131.7 389.957 129 389.957ZM139.5 26.9619V362.996L367.8 194.979L139.5 26.9619Z" fill="white"/>
</g>
<defs>
<clipPath id="clip0">
<rect width="512" height="390" fill="white"/>
</clipPath>
</defs>
</svg>
